<?xml version="1.0" encoding="UTF-8" standalone="no"?>
<!DOCTYPE svg PUBLIC "-//W3C//DTD SVG 1.1//EN" "http://www.w3.org/Graphics/SVG/1.1/DTD/svg11.dtd">
<svg width="100%" height="100%" viewBox="0 0 458 469" version="1.1" xmlns="http://www.w3.org/2000/svg" xmlns:xlink="http://www.w3.org/1999/xlink" xml:space="preserve" xmlns:serif="http://www.serif.com/" style="fill-rule:evenodd;clip-rule:evenodd;stroke-linejoin:round;stroke-miterlimit:2;">
    <g transform="matrix(1,0,0,1,-10.1642,-14.553)">
        <g transform="matrix(0.93965,0,0,0.857396,-284.252,-136.698)">
            <g transform="matrix(0.905207,0,0,0.992048,-7.96782,4.30525)">
                <circle cx="463.378" cy="446.361" r="6.471" style="fill:white;"/>
            </g>
        </g>
        <g transform="matrix(0.93965,0,0,0.857396,-284.252,-136.698)">
            <g transform="matrix(0.905207,0,0,0.992048,264.102,42.0045)">
                <circle cx="463.378" cy="446.361" r="6.471" style="fill:white;"/>
            </g>
        </g>
        <g transform="matrix(0.93965,0,0,0.857396,-284.252,-136.698)">
            <g transform="matrix(0.905207,0,0,0.992048,281.424,10.0409)">
                <circle cx="463.378" cy="446.361" r="6.471" style="fill:white;"/>
            </g>
        </g>
        <g transform="matrix(0.93965,0,0,0.857396,-284.252,-136.698)">
            <g transform="matrix(0.905207,0,0,0.992048,302.5,-48.871)">
                <circle cx="463.378" cy="446.361" r="6.471" style="fill:white;"/>
            </g>
        </g>
        <g transform="matrix(0.93965,0,0,0.857396,-284.252,-136.698)">
            <g transform="matrix(0.905207,0,0,0.992048,226.52,-65.6025)">
                <circle cx="463.378" cy="446.361" r="6.471" style="fill:white;"/>
            </g>
        </g>
        <g transform="matrix(0.93965,0,0,0.857396,-284.252,-136.698)">
            <g transform="matrix(0.905207,0,0,0.992048,96.1072,-100.784)">
                <circle cx="463.378" cy="446.361" r="6.471" style="fill:white;"/>
            </g>
        </g>
        <g transform="matrix(0.93965,0,0,0.857396,-284.252,-136.698)">
            <g transform="matrix(0.905207,0,0,0.992048,95.4716,-125.616)">
                <circle cx="463.378" cy="446.361" r="6.471" style="fill:white;"/>
            </g>
        </g>
        <g transform="matrix(0.93965,0,0,0.857396,-284.252,-136.698)">
            <g transform="matrix(0.905207,0,0,0.992048,35.7551,-87.4618)">
                <circle cx="463.378" cy="446.361" r="6.471" style="fill:white;"/>
            </g>
        </g>
        <g transform="matrix(0.93965,0,0,0.857396,-284.252,-136.698)">
            <g transform="matrix(0.905207,0,0,0.992048,52.6131,12.6976)">
                <circle cx="463.378" cy="446.361" r="6.471" style="fill:white;"/>
            </g>
        </g>
        <g transform="matrix(0.93965,0,0,0.857396,-284.252,-136.698)">
            <g transform="matrix(0.905207,0,0,0.992048,98.1132,81.3973)">
                <circle cx="463.378" cy="446.361" r="6.471" style="fill:white;"/>
            </g>
        </g>
        <g transform="matrix(0.93965,0,0,0.857396,-284.252,-136.698)">
            <g transform="matrix(1.06423,0,0,1.16632,-18.8883,-60.5607)">
                <path d="M424.113,490.934C423.419,490.617 422.647,490.441 421.834,490.441C420.875,490.441 419.974,490.686 419.189,491.118L419.493,455.148L405.694,439.992L408.996,436.947L424.113,453.958L424.113,490.934Z" style="fill:white;"/>
            </g>
        </g>
        <g transform="matrix(0.93965,0,0,0.857396,-284.252,-136.698)">
            <g transform="matrix(1.06423,0,0,1.16632,-18.8883,-60.5607)">
                <path d="M641.982,444.589L641.982,404.742L672.298,374.425L691.515,374.425L695.822,378.733L674.253,378.733L646.289,406.405L646.289,444.672C645.602,444.363 644.84,444.191 644.038,444.191C643.311,444.191 642.617,444.333 641.982,444.589Z" style="fill:white;"/>
            </g>
        </g>
        <g transform="matrix(0.93965,0,0,0.857396,-284.252,-136.698)">
            <g transform="matrix(1.06423,0,0,1.16632,-18.8883,-60.5607)">
                <path d="M571.745,346.483L571.745,316.18L565.813,309.197C567.477,308.619 568.78,307.264 569.285,305.567L576.516,313.927L576.516,346.214C575.867,345.945 575.155,345.796 574.408,345.796C573.442,345.796 572.534,346.045 571.745,346.483Z" style="fill:white;"/>
            </g>
        </g>
        <g transform="matrix(0.93965,0,0,0.857396,-284.252,-136.698)">
            <g transform="matrix(1.06423,0,0,1.16632,-18.8883,-60.5607)">
                <path d="M448.413,423.759C447.003,424.313 445.876,425.434 445.313,426.84L428.368,410.547L428.368,370.995L441,358.363L443.899,361.262L433.131,372.03L433.131,408.476L448.413,423.759Z" style="fill:white;"/>
            </g>
        </g>
        <g transform="matrix(0.93965,0,0,0.857396,-284.252,-136.698)">
            <g transform="matrix(1.06423,0,0,1.16632,-18.8883,-60.5607)">
                <path d="M381.382,396.572L393.564,396.572L393.564,370.533L398.032,366.064L397.89,400.983L381.292,401.062C381.628,400.35 381.816,399.555 381.816,398.716C381.816,397.956 381.661,397.231 381.382,396.572Z" style="fill:white;"/>
            </g>
        </g>
        <g transform="matrix(0.93965,0,0,0.857396,-284.252,-136.698)">
            <g transform="matrix(1.06423,0,0,1.16632,-19.2473,-60.8699)">
                <path d="M571.141,432.027C569.969,432.658 569.051,433.703 568.583,434.965L552.984,419.261L553.289,367.534L556.716,367.534L556.648,417.773L571.141,432.027Z" style="fill:white;"/>
            </g>
        </g>
        <g transform="matrix(0.93965,0,0,0.857396,-284.252,-136.698)">
            <g transform="matrix(1.06423,0,0,1.16632,-18.8883,-60.5607)">
                <path d="M492.904,359.117L494.999,361.212L494.999,393.766C494.815,393.747 494.629,393.738 494.44,393.738C492.975,393.738 491.643,394.311 490.656,395.246L490.656,363.179L489.357,361.88C490.894,361.503 492.178,360.481 492.904,359.117Z" style="fill:white;"/>
            </g>
        </g>
        <g transform="matrix(0.93965,0,0,0.857396,-284.252,-136.698)">
            <g transform="matrix(1.06423,0,0,1.16632,-19.0293,-59.9424)">
                <path d="M514.939,433.174C513.59,433.635 512.476,434.606 511.827,435.857L473.515,397.217L473.349,348.388L496.708,325.03L499.707,328.029L477.905,349.708L477.905,396.14L514.939,433.174Z" style="fill:white;"/>
            </g>
        </g>
        <g transform="matrix(0.93965,0,0,0.857396,-284.252,-136.698)">
            <g transform="matrix(1.06423,0,0,1.16632,-18.8883,-60.5607)">
                <rect x="580.18" y="392.341" width="41.901" height="41.901" style="fill:white;"/>
            </g>
        </g>
        <g transform="matrix(0.93965,0,0,0.857396,-284.252,-136.698)">
            <g transform="matrix(1.06423,0,0,1.16632,-18.8883,-60.5607)">
                <path d="M514.829,368.097L566.656,368.091L540.211,324.875L514.829,368.097Z" style="fill:white;"/>
            </g>
        </g>
        <g transform="matrix(0.93965,0,0,0.857396,-284.252,-136.698)">
            <g transform="matrix(1.12961,0,0,1.16632,-54.6577,-62.3297)">
                <rect x="534.419" y="368.069" width="12.639" height="244.693" style="fill:white;"/>
            </g>
        </g>
        <g transform="matrix(0.93965,0,0,0.857396,-284.252,-136.698)">
            <g transform="matrix(0.833166,-0.913096,0.833166,0.913096,-296.891,339.23)">
                <path d="M601.304,422.985L601.304,714.869L309.42,714.869L309.42,422.985L601.304,422.985ZM587.312,436.505L321.662,436.505L321.662,702.155L587.312,702.155L587.312,436.505Z" style="fill:white;"/>
            </g>
        </g>
        <g transform="matrix(0.93965,0,0,0.857396,-284.252,-136.698)">
            <g transform="matrix(1.06423,0,0,1.16632,-18.8883,-60.5607)">
                <path d="M387.452,418.712L413.83,418.712L451.829,456.711L451.829,523.908L516.825,588.904L516.825,614.867L513.197,616.599L513.064,591.262L447.504,525.437L447.504,458.885L411.927,423.307L387.44,423.307C387.766,422.605 387.948,421.822 387.948,420.997C387.948,420.182 387.771,419.408 387.452,418.712Z" style="fill:white;"/>
            </g>
        </g>
        <g transform="matrix(1,0,0,1,-302,-188.623)">
            <g transform="matrix(0.964944,0,0,0.964944,9.51149,11.9554)">
                <circle cx="549.866" cy="648.913" r="35.073" style="fill:white;"/>
            </g>
        </g>
        <g transform="matrix(1,0,0,1,-302,-188.623)">
            <path d="M573.156,566.857L559.847,580.166L559.847,617.181L554.67,608.898L554.67,577.836L569.609,562.898C570.034,564.745 571.39,566.239 573.156,566.857Z" style="fill:white;"/>
        </g>
        <g transform="matrix(1,0,0,1,-302,-188.623)">
            <path d="M687.5,457.897L654.98,458.026L623.772,490.56L623.772,543.462L572.084,595.15L572.084,614.645L567.311,616.262L567.311,592.319L619.081,540.55L619.081,487.809L653.378,453.512L687.706,453.512C687.344,454.245 687.141,455.069 687.141,455.941C687.141,456.63 687.268,457.289 687.5,457.897Z" style="fill:white;"/>
        </g>
        <g transform="matrix(1,0,0,1,-302,-188.623)">
            <path d="M635.998,520.185C635.45,520.002 634.864,519.903 634.255,519.903C633.398,519.903 632.587,520.099 631.863,520.449L631.691,492.886L656.043,468.534L659.108,471.599L635.998,494.709L635.998,520.185Z" style="fill:white;"/>
        </g>
        <g transform="matrix(0.93965,0,0,0.857396,-284.252,-136.698)">
            <g transform="matrix(1.06423,0,0,1.16632,-18.8883,-60.5607)">
                <path d="M546.201,513.788L593.829,469.059L593.829,432.199L607.911,432.199L607.704,474.029L545.166,535.324" style="fill:white;"/>
            </g>
        </g>
        <g transform="matrix(0.93965,0,0,0.857396,-284.252,-136.698)">
            <g transform="matrix(1.06423,0,0,1.16632,-18.8883,-60.5607)">
                <path d="M654.387,502.399L654.387,530.989L649.748,532.645L649.748,502.416C650.449,502.739 651.228,502.92 652.049,502.92C652.885,502.92 653.677,502.733 654.387,502.399Z" style="fill:white;"/>
            </g>
        </g>
        <g transform="matrix(0.93965,0,0,0.857396,-284.252,-136.698)">
            <g transform="matrix(1.06423,0,0,1.16632,-18.8883,-60.5607)">
                <path d="M534.417,579.133L475.276,521.648L475.69,478.576L488.529,478.576L488.632,518.397L537.668,560.807" style="fill:white;"/>
            </g>
        </g>
        <g transform="matrix(0.93965,0,0,0.857396,-284.252,-136.698)">
            <g transform="matrix(1.06423,0,0,1.16632,-21.643,-66.5988)">
                <circle cx="485.134" cy="467.65" r="19.171" style="fill:white;"/>
            </g>
        </g>
        <g transform="matrix(0.93965,0,0,0.857396,-284.252,-136.698)">
            <g transform="matrix(1.06423,0,0,1.16632,-19.3114,-59.9425)">
                <path d="M501.977,530.976L501.977,505.001L506.351,505.001L506.351,538.663L501.977,530.976Z" style="fill:white;"/>
            </g>
        </g>
        <g transform="matrix(0.93965,0,0,0.857396,-284.252,-136.698)">
            <g transform="matrix(1.06423,0,0,1.16632,-18.8883,-60.5607)">
                <path d="M579.611,352.992L596.163,369.137L596.089,349.9L581.216,334.348L581.322,301.584L581.373,301.562C581.644,301.603 581.921,301.624 582.203,301.624C583.875,301.624 585.373,300.877 586.383,299.7L606.966,318.876L606.881,380.212L596.428,392.446L590.68,392.446L602.718,379.051L602.851,320.834L585.693,305.425L585.359,332.687L600.91,348.62L600.306,375.293L596.408,375.505L577.016,356.056C578.224,355.402 579.16,354.309 579.611,352.992Z" style="fill:white;"/>
            </g>
        </g>
        <g transform="matrix(0.93965,0,0,0.857396,-284.252,-136.698)">
            <g transform="matrix(1.06423,0,0,1.16632,-18.8883,-60.5607)">
                <path d="M616.437,315.056L616.437,385.64L609.215,393.393L602.257,393.194L611.401,384.049L611.401,314.924C612.187,315.356 613.089,315.602 614.048,315.602C614.904,315.602 615.715,315.406 616.437,315.056Z" style="fill:white;"/>
            </g>
        </g>
        <g transform="matrix(0.93965,0,0,0.857396,-284.252,-136.698)">
            <g transform="matrix(1.06423,0,0,1.16632,-19.9525,-60.5607)">
                <path d="M633.331,343.47L627.569,349.232L627.569,371.762L623.427,371.928L623.427,346.747L629.603,340.571C630.337,342.025 631.699,343.11 633.331,343.47Z" style="fill:white;"/>
            </g>
        </g>
        <g transform="matrix(0.93965,0,0,0.857396,-284.252,-136.698)">
            <g transform="matrix(1.06423,0,0,1.16632,-18.8883,-60.5607)">
                <path d="M660.067,430.805C659.466,430.58 658.817,430.458 658.139,430.458C657.221,430.458 656.355,430.683 655.594,431.081L655.594,410.07L678.124,387.54L692.536,387.54L692.536,391.598L679.863,391.598L660.067,411.395L660.067,430.805Z" style="fill:white;"/>
            </g>
        </g>
        <g transform="matrix(0.93965,0,0,0.857396,-284.252,-136.698)">
            <g transform="matrix(1.06423,0,0,1.16632,-18.8883,-60.5607)">
                <path d="M685.632,409.042C686.023,410.502 687.001,411.724 688.296,412.438L678.455,420.838L678.455,436.907L673.889,436.907L673.734,418.601L685.632,409.042Z" style="fill:white;"/>
            </g>
        </g>
        <g transform="matrix(0.93965,0,0,0.857396,-284.252,-136.698)">
            <g transform="matrix(1.06423,0,0,1.16632,-18.8883,-60.5607)">
                <path d="M588.262,491.732L588.262,523.622L578.737,533.148L582.464,536.875L593.336,526.003L593.336,484.484" style="fill:white;"/>
            </g>
        </g>
        <g transform="matrix(0.93965,0,0,0.857396,-284.252,-136.698)">
            <g transform="matrix(1.06423,0,0,1.16632,-18.8883,-60.5607)">
                <path d="M439.27,480.931L439.27,526.266L506.26,595.947L506.546,611.408L502.041,606.638L502.041,598.225L434.805,527.262L434.869,480.892C435.555,481.199 436.315,481.37 437.115,481.37C437.88,481.37 438.608,481.214 439.27,480.931Z" style="fill:white;"/>
            </g>
        </g>
        <g transform="matrix(0.93965,0,0,0.857396,-284.252,-136.698)">
            <g transform="matrix(0.905207,0,0,0.992048,176.765,123.399)">
                <circle cx="463.378" cy="446.361" r="6.471" style="fill:white;"/>
            </g>
        </g>
        <g transform="matrix(0.93965,0,0,0.857396,-284.252,-136.698)">
            <g transform="matrix(1.06423,0,0,1.16632,-18.8883,-60.5607)">
                <path d="M496.986,404.062C498.271,403.578 499.328,402.627 499.949,401.417L514.898,416.366L514.898,397.414L500.32,382.836L500.32,349.305L504.397,349.305L504.397,381.345L518.791,395.739L518.791,425.867L496.986,404.062Z" style="fill:white;"/>
            </g>
        </g>
        <g transform="matrix(0.93965,0,0,0.857396,-284.252,-136.698)">
            <g transform="matrix(1.06423,0,0,1.16632,-18.8883,-60.5607)">
                <path d="M460.233,347.184L460.233,410.547L478.261,428.575L465.539,441.298L462.018,437.778L471.544,428.252L455.599,412.307L455.138,347.28C455.877,347.65 456.711,347.858 457.593,347.858C458.55,347.858 459.449,347.613 460.233,347.184Z" style="fill:white;"/>
            </g>
        </g>
        <g transform="matrix(0.93965,0,0,0.857396,-284.252,-136.698)">
            <g transform="matrix(0.905207,0,0,0.992048,247.011,20.9536)">
                <circle cx="463.378" cy="446.361" r="6.471" style="fill:white;"/>
            </g>
        </g>
        <g transform="matrix(0.93965,0,0,0.857396,-284.252,-136.698)">
            <g transform="matrix(0.743399,0,0,0.814717,123.67,-24.975)">
                <circle cx="463.378" cy="446.361" r="6.471" style="fill:white;"/>
            </g>
        </g>
        <g transform="matrix(0.93965,0,0,0.857396,-284.252,-136.698)">
            <g transform="matrix(0.743399,0,0,0.814717,155.919,-8.1814)">
                <circle cx="463.378" cy="446.361" r="6.471" style="fill:white;"/>
            </g>
        </g>
        <g transform="matrix(0.93965,0,0,0.857396,-284.252,-136.698)">
            <g transform="matrix(0.743399,0,0,0.814717,248.039,-14.4864)">
                <circle cx="463.378" cy="446.361" r="6.471" style="fill:white;"/>
            </g>
        </g>
        <g transform="matrix(0.93965,0,0,0.857396,-284.252,-136.698)">
            <g transform="matrix(0.743399,0,0,0.814717,163.315,41.1204)">
                <circle cx="463.378" cy="446.361" r="6.471" style="fill:white;"/>
            </g>
        </g>
        <g transform="matrix(0.93965,0,0,0.857396,-284.252,-136.698)">
            <g transform="matrix(0.743399,0,0,0.814717,36.8386,40.8546)">
                <circle cx="463.378" cy="446.361" r="6.471" style="fill:white;"/>
            </g>
        </g>
        <g transform="matrix(0.93965,0,0,0.857396,-284.252,-136.698)">
            <g transform="matrix(0.743399,0,0,0.814717,43.4091,66.6742)">
                <circle cx="463.378" cy="446.361" r="6.471" style="fill:white;"/>
            </g>
        </g>
        <g transform="matrix(0.93965,0,0,0.857396,-284.252,-136.698)">
            <g transform="matrix(0.743399,0,0,0.814717,85.2132,154.34)">
                <circle cx="463.378" cy="446.361" r="6.471" style="fill:white;"/>
            </g>
        </g>
        <g transform="matrix(0.93965,0,0,0.857396,-284.252,-136.698)">
            <g transform="matrix(0.743399,0,0,0.814717,101.808,130.855)">
                <circle cx="463.378" cy="446.361" r="6.471" style="fill:white;"/>
            </g>
        </g>
        <g transform="matrix(0.93965,0,0,0.857396,-284.252,-136.698)">
            <g transform="matrix(0.743399,0,0,0.814717,116.073,75.8097)">
                <circle cx="463.378" cy="446.361" r="6.471" style="fill:white;"/>
            </g>
        </g>
        <g transform="matrix(0.93965,0,0,0.857396,-284.252,-136.698)">
            <g transform="matrix(0.743399,0,0,0.814717,186.459,87.4409)">
                <circle cx="463.378" cy="446.361" r="6.471" style="fill:white;"/>
            </g>
        </g>
        <g transform="matrix(0.93965,0,0,0.857396,-284.252,-136.698)">
            <g transform="matrix(0.743399,0,0,0.814717,246.845,84.7749)">
                <circle cx="463.378" cy="446.361" r="6.471" style="fill:white;"/>
            </g>
        </g>
        <g transform="matrix(0.93965,0,0,0.857396,-284.252,-136.698)">
            <g transform="matrix(0.743399,0,0,0.814717,310.803,-29.9965)">
                <circle cx="463.378" cy="446.361" r="6.471" style="fill:white;"/>
            </g>
        </g>
        <g transform="matrix(0.93965,0,0,0.857396,-284.252,-136.698)">
            <g transform="matrix(0.743399,0,0,0.814717,289.959,-62.5827)">
                <circle cx="463.378" cy="446.361" r="6.471" style="fill:white;"/>
            </g>
        </g>
        <g transform="matrix(0.93965,0,0,0.857396,-284.252,-136.698)">
            <g transform="matrix(0.743399,0,0,0.814717,256.351,-78.9637)">
                <circle cx="463.378" cy="446.361" r="6.471" style="fill:white;"/>
            </g>
        </g>
        <g transform="matrix(0.93965,0,0,0.857396,-284.252,-136.698)">
            <g transform="matrix(0.743399,0,0,0.814717,237.111,-69.7834)">
                <circle cx="463.378" cy="446.361" r="6.471" style="fill:white;"/>
            </g>
        </g>
        <g transform="matrix(0.93965,0,0,0.857396,-284.252,-136.698)">
            <g transform="matrix(0.743399,0,0,0.814717,371.827,51.2834)">
                <circle cx="463.378" cy="446.361" r="6.471" style="fill:white;"/>
            </g>
        </g>
        <g transform="matrix(0.93965,0,0,0.857396,-284.252,-136.698)">
            <g transform="matrix(0.743399,0,0,0.814717,337.118,84.0835)">
                <circle cx="463.378" cy="446.361" r="6.471" style="fill:white;"/>
            </g>
        </g>
        <g transform="matrix(0.93965,0,0,0.857396,-284.252,-136.698)">
            <g transform="matrix(0.743399,0,0,0.814717,373.616,107.493)">
                <circle cx="463.378" cy="446.361" r="6.471" style="fill:white;"/>
            </g>
        </g>
        <g transform="matrix(0.93965,0,0,0.857396,-284.252,-136.698)">
            <g transform="matrix(0.743399,0,0,0.814717,330.67,156.167)">
                <circle cx="463.378" cy="446.361" r="6.471" style="fill:white;"/>
            </g>
        </g>
        <g transform="matrix(0.93965,0,0,0.857396,-284.252,-136.698)">
            <g transform="matrix(0.743399,0,0,0.814717,311.647,188.401)">
                <circle cx="463.378" cy="446.361" r="6.471" style="fill:white;"/>
            </g>
        </g>
        <g transform="matrix(0.93965,0,0,0.857396,-284.252,-136.698)">
            <g transform="matrix(0.743399,0,0,0.814717,248.712,230.704)">
                <circle cx="463.378" cy="446.361" r="6.471" style="fill:white;"/>
            </g>
        </g>
    </g>
</svg>
